<?xml version="1.0" standalone="no"?><!DOCTYPE svg PUBLIC "-//W3C//DTD SVG 1.1//EN" "http://www.w3.org/Graphics/SVG/1.1/DTD/svg11.dtd"><svg t="1597354747363" class="icon" viewBox="0 0 1024 1024" version="1.1" xmlns="http://www.w3.org/2000/svg" p-id="11897" xmlns:xlink="http://www.w3.org/1999/xlink" width="200" height="200"><defs><style type="text/css"></style></defs><path d="M512.96 942.08c-14.08 0-28-5.28-38.72-16L135.84 587.52a242.192 242.192 0 0 1-74.4-175.36c0-134.72 109.6-244.16 244.16-244.16 32.16 0 62.4 8.16 63.68 8.48 13.12 3.52 26.08 8.32 38.4 14.08 13.28 6.08 25.76 13.44 38.08 22.08 43.04 17.6 92.16 17.28 135.36-1.28 41.28-29.12 89.76-44.64 140.32-44.64 134.72 0 244.16 109.6 244.16 244.32 0 65.44-25.6 127.04-72.16 173.28L551.68 926.08c-10.56 10.56-24.64 16-38.72 16zM305.6 200c-116.96 0-212.16 95.2-212.16 212.16 0 57.92 23.04 112 64.8 152.48l338.72 338.72c8.96 8.8 23.36 8.8 32.16 0L870.88 561.6c40.48-40.16 62.72-93.76 62.72-150.56 0-116.96-95.2-212.32-212.16-212.32-44.32 0-86.88 13.76-123.04 39.52l-2.88 1.76c-52.16 23.04-111.84 23.52-163.68 1.44l-3.04-1.76c-11.2-8-22.4-14.56-34.4-20.16-10.72-4.96-22.08-9.12-33.28-12.16-0.48 0-27.68-7.36-55.52-7.36z" p-id="11898"></path><path d="M570.88 415.36c-123.04-31.68-115.2-76.64-214.56-83.52-80-5.6-136.8 19.84-189.92 45.12-3.68 13.44-5.92 27.36-5.92 41.92 0 52.64 26.24 99.2 66.4 127.36l-1.44 1.44 265.44 265.44c12.48 12.48 32.8 12.48 45.28 0L801.6 547.68l-1.44-1.44a155.36 155.36 0 0 0 66.4-127.52c0-2.4-0.32-4.8-0.32-7.36-85.28 22.24-187.68 31.68-295.36 4z" p-id="11899" data-spm-anchor-id="a313x.7781069.0.i6" class="selected" fill="#d81e06"></path></svg>