<?xml version="1.0" encoding="UTF-8" ?>
<!DOCTYPE svg PUBLIC "-//W3C//DTD SVG 1.1//EN" "http://www.w3.org/Graphics/SVG/1.1/DTD/svg11.dtd">
<svg width="2800pt" height="295pt" viewBox="0 0 2800 295" version="1.1" xmlns="http://www.w3.org/2000/svg">
<g id="#0bb6f6ff">
<path fill="#0bb6f6" opacity="1.00" d=" M 103.46 1.71 C 119.42 -0.75 136.59 -0.71 151.40 6.50 C 172.28 15.90 189.57 32.62 212.12 38.37 C 218.26 39.65 224.94 41.33 231.00 38.86 C 248.90 32.97 264.28 21.78 280.30 12.21 C 304.96 -3.59 337.73 -3.32 363.50 9.72 C 383.91 19.80 398.51 38.60 408.49 58.59 C 421.92 85.74 428.81 115.52 434.50 145.09 C 437.96 163.97 440.48 183.00 442.55 202.08 C 443.58 210.33 443.54 218.68 443.67 226.99 C 443.69 245.11 441.67 264.19 431.72 279.82 C 428.07 286.07 421.79 290.51 414.86 292.42 C 405.08 295.16 394.75 294.08 384.87 292.50 C 375.88 291.22 367.51 287.12 360.25 281.77 C 340.40 267.04 328.45 243.87 307.39 230.54 C 291.98 221.26 273.46 220.95 256.16 218.44 C 222.98 215.15 189.25 216.58 156.58 223.38 C 148.74 224.98 141.20 228.09 134.64 232.70 C 114.29 246.85 102.82 270.45 81.98 284.02 C 71.13 291.31 57.84 293.65 45.00 294.07 C 34.87 294.32 23.94 291.81 16.74 284.23 C 9.60 276.41 5.29 266.36 2.92 256.14 C -0.75 239.72 -0.07 222.75 0.87 206.07 C 5.56 166.87 10.24 127.31 22.38 89.57 C 27.32 74.63 32.96 59.77 41.39 46.41 C 50.20 32.33 61.82 19.66 76.38 11.42 C 84.80 6.76 93.96 3.36 103.46 1.71 M 110.50 78.75 C 97.65 81.79 85.56 88.72 77.14 98.99 C 69.78 107.78 65.50 119.39 66.77 130.91 C 67.06 140.74 70.87 150.32 77.20 157.80 C 88.99 171.84 107.76 179.50 125.99 178.24 C 147.03 178.68 168.09 166.38 177.24 147.30 C 182.51 136.53 182.43 123.74 178.65 112.51 C 174.48 100.48 164.98 90.83 153.83 84.97 C 140.68 78.02 125.07 75.58 110.50 78.75 M 315.06 79.99 C 315.05 92.63 315.04 105.27 315.09 117.91 C 299.54 119.03 283.55 115.71 268.37 120.42 C 268.60 126.11 268.82 131.80 269.07 137.49 C 284.38 137.74 299.70 137.66 315.01 137.76 C 315.06 151.01 315.06 164.26 315.05 177.52 C 322.26 177.52 329.48 177.55 336.69 177.56 C 336.69 164.28 336.67 151.01 336.75 137.73 C 352.26 137.67 367.77 137.81 383.28 137.37 C 383.03 130.70 382.99 123.81 380.25 117.58 C 365.72 118.34 351.16 118.10 336.62 117.84 C 336.71 105.23 336.70 92.61 336.71 79.99 C 329.49 79.98 322.27 79.98 315.06 79.99 Z" />
<path fill="#0bb6f6" opacity="1.00" d=" M 113.37 100.62 C 129.11 96.48 148.54 102.94 155.35 118.52 C 160.58 131.05 153.45 145.61 142.37 152.29 C 127.20 162.00 104.78 157.22 94.87 142.18 C 90.50 135.69 90.08 127.26 91.94 119.86 C 95.23 110.37 104.12 103.70 113.37 100.62 Z" />
</g>
<g id="#666666ff">
<path fill="#666666" opacity="1.00" d=" M 1561.41 129.41 C 1588.61 100.92 1607.22 65.28 1619.84 28.22 C 1628.12 31.67 1635.85 36.29 1643.91 40.22 C 1646.36 41.25 1648.58 44.18 1646.76 46.76 C 1644.08 50.48 1638.87 51.62 1636.81 55.95 C 1631.94 65.10 1627.33 74.40 1622.41 83.53 C 1621.36 85.54 1620.00 87.57 1620.24 89.95 C 1620.26 133.30 1620.24 176.64 1620.25 219.99 C 1620.34 230.40 1621.48 240.77 1621.66 251.18 C 1613.05 251.30 1604.44 251.28 1595.83 251.19 C 1596.14 240.78 1597.30 230.40 1597.00 219.97 C 1597.00 188.91 1597.00 157.85 1597.00 126.79 C 1592.18 133.94 1587.12 140.93 1582.02 147.88 C 1574.39 142.51 1566.01 138.24 1557.21 135.15 C 1557.47 132.59 1559.84 131.18 1561.41 129.41 Z" />
<path fill="#666666" opacity="1.00" d=" M 1694.75 29.79 C 1704.08 32.27 1713.49 34.52 1722.73 37.29 C 1725.47 38.06 1725.84 41.34 1724.71 43.58 C 1722.54 46.46 1718.45 47.61 1717.27 51.25 C 1715.00 57.74 1713.38 64.44 1711.27 70.99 C 1725.81 70.80 1740.39 71.60 1754.89 70.17 C 1758.97 69.83 1763.06 69.36 1767.18 69.21 C 1767.31 76.96 1767.23 84.70 1767.23 92.44 C 1757.14 92.21 1747.11 90.72 1737.01 90.99 C 1726.46 91.02 1715.92 90.98 1705.39 91.01 C 1703.48 97.26 1701.54 103.50 1699.65 109.75 C 1715.09 109.75 1730.54 109.75 1746.00 109.75 C 1757.49 109.91 1768.96 108.83 1780.41 107.89 C 1781.15 115.65 1780.57 123.46 1780.74 131.24 C 1772.14 131.23 1763.64 129.54 1755.04 129.49 C 1734.38 129.50 1713.72 129.51 1693.07 129.50 C 1690.15 136.39 1687.01 143.19 1683.91 150.00 C 1701.61 150.00 1719.31 150.00 1737.01 150.00 C 1749.88 150.59 1762.68 148.70 1775.51 148.41 C 1771.69 155.63 1766.18 161.80 1761.44 168.42 C 1748.87 184.93 1735.31 200.67 1721.12 215.81 C 1730.82 222.67 1740.84 229.17 1749.97 236.78 C 1745.40 242.59 1740.81 248.37 1736.25 254.17 C 1735.43 254.93 1734.83 256.44 1733.51 255.91 C 1712.01 236.16 1687.12 220.60 1661.94 206.05 C 1661.13 205.52 1659.21 204.66 1660.25 203.44 C 1664.44 197.43 1669.22 191.84 1673.54 185.91 C 1683.14 191.20 1692.52 196.90 1701.67 202.94 C 1712.17 192.61 1721.87 181.49 1731.09 170.01 C 1714.72 169.98 1698.35 170.02 1681.98 169.99 C 1673.99 169.87 1666.06 170.86 1658.14 171.66 C 1656.00 165.36 1653.14 159.33 1649.89 153.53 C 1654.24 150.80 1658.59 147.64 1661.12 143.04 C 1663.53 138.61 1665.87 134.14 1667.89 129.52 C 1661.91 129.52 1655.94 129.44 1649.97 129.53 C 1642.23 129.89 1634.55 130.93 1626.83 131.40 C 1626.69 123.61 1626.71 115.83 1626.81 108.04 C 1636.89 108.52 1646.94 109.76 1657.05 109.76 C 1662.99 109.75 1668.94 109.74 1674.89 109.76 C 1676.79 103.44 1679.10 97.25 1681.21 91.00 C 1671.49 91.10 1661.74 90.64 1652.05 91.61 C 1647.45 91.92 1642.86 92.47 1638.26 92.42 C 1638.23 84.74 1638.27 77.06 1638.23 69.37 C 1643.19 69.25 1648.11 70.03 1653.07 70.36 C 1664.14 71.46 1675.28 70.85 1686.39 70.99 C 1689.57 57.34 1691.98 43.52 1694.75 29.79 Z" />
<path fill="#666666" opacity="1.00" d=" M 956.29 81.30 C 962.93 65.75 966.70 49.21 969.69 32.63 C 976.85 34.37 983.97 36.32 991.15 38.01 C 993.60 38.67 996.26 39.11 998.32 40.73 C 1000.20 42.33 999.70 45.46 997.92 46.94 C 995.08 49.42 991.45 51.32 989.99 55.01 C 987.90 60.21 986.65 65.70 984.82 71.00 C 997.56 70.96 1010.29 71.07 1023.03 70.95 C 1029.71 70.88 1036.29 69.29 1042.95 69.14 C 1043.63 76.94 1043.09 84.82 1043.21 92.65 C 1036.45 92.42 1029.79 91.00 1023.02 91.00 C 1007.91 90.96 992.80 91.07 977.70 90.95 C 975.11 95.92 972.82 101.05 970.24 106.02 C 983.05 108.13 996.07 107.41 1009.00 107.45 C 1018.73 107.37 1028.40 105.79 1038.12 105.71 C 1030.32 123.95 1019.56 140.82 1007.78 156.72 C 1007.76 157.22 1007.74 158.23 1007.73 158.74 C 1015.81 158.67 1023.93 159.08 1031.99 158.13 C 1036.58 157.71 1041.12 156.72 1045.76 156.61 C 1045.55 164.66 1046.16 172.75 1045.41 180.78 C 1032.99 178.41 1020.35 178.27 1007.75 178.50 C 1007.75 195.68 1007.75 212.86 1007.76 230.04 C 1007.80 235.02 1006.63 240.32 1003.05 243.98 C 1000.00 246.93 995.92 248.50 991.91 249.59 C 982.95 251.84 973.70 252.44 964.52 253.01 C 961.25 243.49 955.85 234.94 950.35 226.59 C 950.66 226.31 951.26 225.76 951.56 225.48 C 960.39 226.49 969.17 227.98 978.05 228.51 C 980.07 228.53 982.66 228.89 983.94 226.88 C 984.50 225.32 984.47 223.64 984.52 222.01 C 984.47 207.50 984.51 193.00 984.50 178.50 C 973.22 178.07 961.99 178.95 950.85 180.68 C 950.65 172.61 950.76 164.54 950.79 156.47 C 961.64 157.93 972.56 159.15 983.54 158.74 C 983.37 156.24 983.25 153.74 983.20 151.23 C 989.87 143.97 995.76 136.00 1000.74 127.49 C 988.80 127.17 976.89 127.85 965.04 129.19 L 964.45 128.67 C 963.98 124.70 964.34 120.69 964.25 116.70 C 962.74 119.09 961.26 121.50 959.76 123.89 C 957.44 122.63 955.09 121.41 952.74 120.20 C 951.45 128.47 949.99 136.74 949.66 145.12 C 948.83 169.77 947.51 194.42 944.98 218.95 C 944.12 225.87 942.15 233.81 935.58 237.47 C 927.07 242.24 917.12 243.25 907.65 244.81 C 905.37 237.00 902.65 229.30 899.10 221.96 C 898.32 220.37 897.64 218.69 897.65 216.89 C 903.51 217.71 909.18 220.09 915.14 219.93 C 918.84 219.92 921.60 216.65 921.72 213.08 C 924.39 189.23 926.04 165.25 926.52 141.26 C 922.36 141.25 918.20 141.25 914.05 141.24 C 910.92 180.48 898.44 219.17 876.38 251.91 C 869.05 247.01 861.09 243.19 852.99 239.75 C 852.79 238.15 854.14 237.11 855.02 235.98 C 866.69 222.65 874.92 206.61 880.57 189.89 C 890.58 159.87 892.93 127.90 892.49 96.43 C 887.05 96.75 881.63 98.35 876.21 97.94 C 875.71 90.17 876.14 82.37 876.00 74.58 C 881.00 74.69 885.94 75.69 890.94 76.02 C 898.64 76.75 906.39 76.46 914.12 76.47 C 907.04 66.29 899.05 56.78 890.89 47.47 C 896.27 42.64 901.97 38.19 907.52 33.56 C 917.65 44.55 927.38 55.92 936.31 67.90 C 932.74 70.76 929.16 73.60 925.66 76.54 C 935.87 76.68 946.02 75.50 956.15 74.30 C 956.20 76.63 956.24 78.97 956.29 81.30 M 916.06 96.49 C 915.65 104.92 915.65 113.37 915.15 121.79 C 927.27 121.98 939.40 121.56 951.39 119.65 C 946.88 117.53 942.10 116.09 937.50 114.22 C 937.44 113.90 937.31 113.25 937.24 112.93 C 941.38 108.23 945.11 103.17 948.20 97.71 C 937.54 96.22 926.78 96.48 916.06 96.49 Z" />
<path fill="#666666" opacity="1.00" d=" M 1071.81 47.73 C 1097.31 50.06 1123.24 46.13 1147.19 37.12 C 1151.07 42.11 1155.02 47.04 1158.82 52.09 C 1160.55 54.50 1162.63 57.77 1160.95 60.72 C 1158.35 63.30 1154.36 62.45 1151.09 62.31 C 1146.72 61.72 1142.34 62.39 1138.00 62.83 C 1138.01 74.93 1137.98 87.04 1138.02 99.15 C 1144.72 89.43 1149.95 78.77 1153.88 67.65 C 1160.09 70.75 1165.95 74.50 1172.02 77.86 C 1174.21 79.16 1177.36 80.95 1176.58 84.01 C 1174.99 87.32 1170.93 88.08 1168.63 90.74 C 1162.35 97.36 1159.59 106.37 1153.73 113.32 C 1156.93 112.90 1160.14 112.50 1163.35 112.11 C 1163.76 114.62 1163.79 117.17 1163.79 119.71 C 1178.41 114.61 1192.80 108.24 1205.12 98.73 C 1194.47 88.13 1184.24 76.73 1177.43 63.22 C 1173.51 63.37 1169.60 63.57 1165.68 63.48 C 1165.46 56.02 1165.21 48.53 1165.82 41.09 C 1173.53 41.92 1181.23 43.11 1189.01 43.01 C 1201.00 42.99 1212.99 43.01 1224.98 43.00 C 1242.86 42.82 1260.88 43.97 1278.57 40.65 C 1278.71 43.35 1276.90 45.55 1275.74 47.83 C 1266.01 65.36 1254.89 82.23 1241.36 97.08 C 1258.96 105.98 1278.28 110.82 1297.69 113.81 C 1297.01 116.17 1295.14 117.81 1293.62 119.61 C 1288.65 125.24 1284.49 131.53 1280.74 138.01 C 1261.06 131.74 1241.16 125.03 1223.72 113.68 C 1220.30 116.23 1216.83 118.73 1213.40 121.27 C 1220.59 122.59 1227.88 123.44 1235.04 124.95 C 1237.63 125.67 1241.19 126.80 1241.35 130.03 C 1241.04 133.49 1237.37 135.05 1236.15 138.01 C 1235.44 141.46 1235.81 145.01 1235.76 148.50 C 1242.17 148.47 1248.60 148.54 1255.02 148.48 C 1262.50 148.21 1269.92 147.12 1277.40 146.63 C 1277.54 154.49 1277.63 162.35 1277.34 170.21 C 1269.90 169.49 1262.48 168.47 1255.02 168.05 C 1248.60 167.91 1242.17 168.04 1235.75 168.00 C 1235.75 173.92 1235.74 179.83 1235.76 185.75 C 1249.87 185.53 1264.04 186.40 1278.10 184.79 C 1281.69 184.42 1285.28 183.89 1288.90 183.76 C 1288.94 191.42 1289.28 199.11 1288.76 206.76 C 1285.25 207.24 1281.73 206.43 1278.23 206.20 C 1264.13 204.57 1249.91 205.48 1235.76 205.25 C 1235.91 216.86 1235.23 228.52 1236.51 240.09 C 1236.84 243.81 1237.32 247.51 1237.38 251.25 C 1228.37 251.22 1219.36 251.31 1210.36 251.20 C 1210.69 242.45 1212.01 233.76 1212.01 225.00 C 1211.99 218.41 1212.00 211.83 1211.99 205.25 C 1198.39 205.51 1184.72 204.55 1171.17 206.13 C 1167.32 206.49 1163.48 206.84 1159.63 207.09 C 1159.37 199.30 1159.50 191.51 1159.55 183.72 C 1163.69 183.93 1167.81 184.52 1171.95 184.92 C 1185.25 186.35 1198.64 185.54 1211.99 185.75 C 1212.00 179.84 1211.99 173.92 1212.00 168.00 C 1206.01 168.00 1200.02 168.00 1194.04 167.99 C 1185.93 167.97 1177.91 169.18 1169.86 169.93 C 1169.64 162.12 1169.76 154.29 1169.79 146.48 C 1178.21 146.95 1186.55 148.50 1195.00 148.51 C 1200.68 148.50 1206.36 148.49 1212.04 148.50 C 1211.96 140.06 1211.15 131.66 1210.37 123.27 C 1198.25 131.47 1185.36 138.56 1171.81 144.11 C 1169.57 139.30 1166.95 134.68 1163.91 130.34 C 1163.75 132.16 1163.57 133.99 1163.38 135.81 C 1154.88 134.88 1146.36 134.01 1137.81 133.97 C 1138.07 135.60 1137.71 137.66 1139.41 138.64 C 1149.24 147.38 1158.45 156.79 1167.70 166.14 C 1161.89 171.72 1156.81 178.01 1152.45 184.78 C 1152.03 184.79 1151.19 184.80 1150.77 184.81 C 1146.60 178.92 1142.93 172.64 1138.04 167.30 C 1137.94 187.21 1138.04 207.12 1137.99 227.03 C 1137.94 235.78 1139.44 244.43 1139.82 253.16 C 1130.79 253.33 1121.75 253.26 1112.72 253.19 C 1113.02 244.12 1114.52 235.11 1114.51 226.01 C 1114.47 210.46 1114.53 194.90 1114.48 179.34 C 1107.82 190.89 1100.60 202.10 1093.22 213.19 C 1091.91 214.84 1091.07 217.12 1089.03 217.98 C 1082.35 212.03 1074.52 207.48 1065.89 205.04 C 1067.83 201.72 1070.96 199.39 1073.47 196.53 C 1090.01 178.75 1101.81 156.95 1109.49 134.00 C 1097.55 133.69 1085.64 134.40 1073.79 135.78 C 1073.18 128.10 1073.60 120.39 1073.55 112.69 C 1080.38 113.16 1087.17 114.25 1094.04 114.32 C 1089.47 106.59 1084.68 98.97 1079.17 91.86 C 1077.24 89.42 1075.12 87.10 1073.61 84.36 C 1079.40 79.91 1085.13 75.39 1090.88 70.89 C 1099.01 81.05 1107.18 91.21 1114.51 101.97 C 1114.48 90.15 1114.49 78.33 1114.51 66.51 C 1103.42 68.12 1092.33 69.78 1081.15 70.58 C 1079.23 62.49 1075.34 55.16 1071.81 47.73 M 1203.93 62.52 C 1208.78 70.79 1215.35 77.90 1222.69 84.01 C 1228.75 77.28 1234.53 70.25 1239.27 62.51 C 1227.49 62.51 1215.71 62.49 1203.93 62.52 M 1101.66 114.19 C 1105.93 114.28 1110.21 114.25 1114.50 114.25 C 1114.50 110.79 1114.49 107.33 1114.48 103.87 C 1110.23 107.35 1105.77 110.56 1101.66 114.19 M 1138.01 107.66 C 1137.99 109.88 1137.99 112.10 1138.01 114.32 C 1141.54 114.24 1145.06 113.92 1148.60 113.63 C 1145.17 111.46 1141.65 109.44 1138.01 107.66 Z" />
<path fill="#666666" opacity="1.00" d=" M 829.82 56.81 C 834.38 50.77 839.86 45.50 844.83 39.80 C 856.99 49.07 868.65 59.00 879.72 69.56 C 874.05 75.24 869.33 81.91 863.08 86.96 C 853.31 75.56 841.94 65.63 829.82 56.81 Z" />
<path fill="#666666" opacity="1.00" d=" M 582.78 41.29 C 597.80 43.09 612.92 43.75 628.04 43.50 C 660.03 43.50 692.01 43.50 724.00 43.50 C 745.69 43.37 767.49 44.25 789.06 41.33 C 791.21 40.84 790.65 43.79 790.78 45.03 C 790.56 52.08 791.15 59.17 790.39 66.21 C 767.12 62.30 743.47 64.20 720.00 63.75 C 720.00 75.67 720.00 87.58 720.00 99.50 C 739.47 99.58 759.03 99.73 778.34 96.89 C 775.73 121.51 776.68 146.29 776.50 171.00 C 776.64 192.02 776.01 213.07 777.42 234.06 C 777.66 238.39 778.53 242.68 778.46 247.03 C 769.38 246.79 760.28 247.37 751.23 246.74 C 751.21 239.16 753.05 231.64 752.80 224.01 C 709.53 223.98 666.25 224.01 622.97 224.00 C 622.86 231.85 623.76 239.68 625.16 247.40 C 620.14 248.05 615.07 247.66 610.03 247.75 C 605.75 247.68 601.44 248.06 597.21 247.35 C 600.45 224.37 599.26 201.11 599.50 178.00 C 599.24 150.95 600.49 123.80 597.48 96.86 C 616.01 99.74 634.80 99.56 653.50 99.50 C 653.50 87.58 653.50 75.67 653.50 63.75 C 638.64 63.74 623.78 63.76 608.93 63.74 C 600.19 63.77 591.50 64.66 582.87 65.93 C 582.63 57.72 582.78 49.50 582.78 41.29 M 677.00 63.75 C 677.00 75.67 677.00 87.58 677.00 99.50 C 683.58 99.50 690.17 99.50 696.75 99.49 C 696.74 87.58 696.75 75.67 696.75 63.75 C 690.17 63.75 683.58 63.75 677.00 63.75 M 623.00 119.25 C 623.00 147.50 623.00 175.75 623.00 204.00 C 666.25 204.00 709.50 204.00 752.75 204.00 C 752.75 175.75 752.76 147.50 752.75 119.25 C 741.83 119.25 730.92 119.25 720.00 119.25 C 720.01 130.88 719.98 142.52 720.01 154.15 C 720.03 156.42 720.25 159.64 723.04 160.18 C 732.83 161.21 742.50 158.13 752.22 157.56 C 749.57 165.65 747.60 173.97 746.92 182.47 C 734.96 183.07 722.85 184.01 710.98 181.92 C 706.84 181.14 702.42 179.67 699.87 176.09 C 697.21 172.32 696.90 167.51 696.75 163.06 C 696.74 148.45 696.75 133.85 696.75 119.25 C 690.17 119.25 683.59 119.25 677.01 119.24 C 678.02 143.62 669.88 168.88 652.12 186.06 C 643.53 180.08 633.65 176.39 623.71 173.38 C 626.06 169.76 630.74 168.78 633.74 165.78 C 647.79 154.82 653.09 136.40 653.45 119.23 C 643.30 119.27 633.15 119.24 623.00 119.25 Z" />
<path fill="#666666" opacity="1.00" d=" M 1342.42 43.85 C 1350.22 43.59 1358.09 45.52 1365.98 45.47 C 1409.32 45.54 1452.65 45.48 1495.99 45.50 C 1504.85 45.50 1513.63 44.23 1522.45 43.59 C 1522.44 51.76 1522.74 59.94 1522.27 68.10 C 1512.90 66.93 1503.49 65.94 1494.04 65.99 C 1452.11 66.02 1410.18 65.99 1368.25 66.00 C 1368.25 82.66 1368.25 99.31 1368.25 115.97 C 1368.12 125.61 1368.86 135.24 1368.35 144.88 C 1367.77 167.12 1364.78 189.48 1357.50 210.57 C 1352.47 224.68 1345.69 238.36 1336.14 249.97 C 1328.92 243.45 1320.44 238.42 1311.21 235.37 C 1311.23 234.94 1311.28 234.08 1311.30 233.65 C 1323.72 224.11 1331.54 209.83 1336.25 195.14 C 1343.31 172.86 1344.68 149.25 1344.50 126.03 C 1344.49 108.02 1344.51 90.00 1344.49 71.99 C 1344.42 62.57 1342.73 53.24 1342.42 43.85 Z" />
<path fill="#666666" opacity="1.00" d=" M 2130.07 69.07 C 2138.02 68.95 2145.97 68.96 2153.93 69.07 C 2154.09 116.88 2153.95 164.69 2154.00 212.50 C 2145.99 212.44 2137.99 212.65 2130.00 212.37 C 2130.05 164.61 2129.90 116.84 2130.07 69.07 Z" />
<path fill="#666666" opacity="1.00" d=" M 2728.31 69.08 C 2736.32 68.90 2744.34 69.05 2752.37 69.00 C 2752.67 97.00 2752.41 125.00 2752.50 153.00 C 2752.62 172.82 2752.07 192.65 2753.25 212.45 C 2745.37 212.56 2737.51 212.48 2729.65 212.50 C 2728.96 207.52 2728.73 202.50 2728.47 197.49 C 2725.31 202.51 2721.16 207.02 2715.91 209.88 C 2708.06 214.30 2698.69 214.87 2689.93 213.89 C 2681.11 212.90 2672.51 209.09 2666.43 202.53 C 2656.37 191.72 2653.63 176.25 2653.73 161.97 C 2653.50 146.98 2657.05 130.88 2667.97 119.95 C 2678.75 109.16 2695.57 106.96 2709.90 110.43 C 2717.77 112.28 2724.16 117.80 2728.59 124.40 C 2727.91 105.97 2728.33 87.52 2728.31 69.08 M 2696.54 127.75 C 2688.32 129.35 2682.56 136.60 2680.61 144.42 C 2677.94 154.76 2677.91 165.73 2679.95 176.19 C 2681.34 182.87 2684.43 189.81 2690.54 193.42 C 2697.18 197.25 2705.58 197.29 2712.68 194.70 C 2719.42 192.19 2724.12 185.95 2726.21 179.22 C 2728.89 170.80 2729.05 161.75 2728.15 153.02 C 2727.27 145.64 2724.91 137.94 2719.33 132.74 C 2713.27 127.23 2704.30 126.04 2696.54 127.75 Z" />
<path fill="#666666" opacity="1.00" d=" M 1939.57 72.78 C 1958.99 69.74 1980.55 71.33 1997.00 83.09 C 2011.18 93.12 2019.28 109.87 2021.49 126.80 C 2024.02 146.30 2022.43 167.19 2012.55 184.57 C 2006.25 195.90 1995.93 204.85 1983.86 209.56 C 1970.06 215.02 1954.72 215.56 1940.18 213.33 C 1925.52 211.03 1911.58 203.39 1902.68 191.39 C 1891.82 177.11 1888.43 158.61 1888.73 141.04 C 1888.74 122.89 1893.26 103.61 1906.17 90.18 C 1914.84 80.68 1927.00 74.95 1939.57 72.78 M 1946.50 92.82 C 1939.34 93.97 1932.48 97.17 1927.32 102.30 C 1921.60 108.06 1918.05 115.67 1916.30 123.53 C 1913.82 134.51 1913.68 145.96 1915.42 157.06 C 1917.02 166.93 1920.79 176.82 1928.03 183.94 C 1938.04 194.06 1953.73 195.95 1967.10 192.92 C 1975.98 191.04 1983.94 185.40 1988.64 177.63 C 1995.01 167.33 1996.52 154.91 1996.76 143.04 C 1996.65 132.32 1995.39 121.25 1990.34 111.64 C 1986.53 104.18 1980.15 97.92 1972.27 94.92 C 1964.09 91.83 1955.06 91.34 1946.50 92.82 Z" />
<path fill="#666666" opacity="1.00" d=" M 820.62 110.71 C 824.63 104.57 829.74 99.24 834.23 93.46 C 845.97 101.64 857.32 110.38 868.13 119.76 C 869.07 120.82 871.38 122.14 869.53 123.49 C 864.82 128.85 860.02 134.14 855.03 139.24 C 844.41 128.76 833.12 118.90 820.62 110.71 Z" />
<path fill="#666666" opacity="1.00" d=" M 1386.80 93.55 C 1394.23 94.02 1401.58 95.44 1409.05 95.49 C 1425.69 95.52 1442.33 95.49 1458.98 95.50 C 1468.95 95.36 1478.95 95.90 1488.89 94.91 C 1493.77 94.52 1498.62 93.64 1503.54 93.62 C 1500.09 112.62 1499.76 131.96 1497.75 151.12 C 1497.24 158.32 1496.06 165.83 1491.78 171.85 C 1487.71 177.82 1480.79 180.98 1474.07 182.95 C 1461.69 186.29 1448.80 186.90 1436.05 187.45 C 1434.28 177.45 1429.89 168.21 1424.59 159.63 C 1429.43 159.06 1434.20 160.61 1439.02 161.02 C 1448.04 161.97 1457.37 163.67 1466.30 161.22 C 1470.37 160.20 1473.96 156.83 1474.16 152.46 C 1475.12 140.16 1476.12 127.85 1476.56 115.51 C 1455.29 115.49 1434.02 115.50 1412.75 115.50 C 1412.74 147.68 1412.77 179.86 1412.74 212.03 C 1412.83 214.75 1412.79 217.62 1413.95 220.14 C 1415.95 223.06 1419.98 222.74 1423.10 223.08 C 1446.40 224.09 1469.79 223.76 1493.04 221.65 C 1496.80 221.48 1499.44 218.30 1501.20 215.28 C 1505.59 207.26 1506.79 198.05 1508.50 189.20 C 1508.68 188.94 1509.05 188.40 1509.24 188.14 C 1514.48 191.35 1519.16 195.45 1524.62 198.35 C 1528.30 200.66 1532.52 201.93 1536.28 204.07 C 1534.43 210.59 1530.77 216.48 1527.23 222.22 C 1520.30 233.04 1509.48 242.56 1496.20 243.71 C 1470.01 245.71 1443.70 245.97 1417.48 244.82 C 1409.19 243.80 1399.39 243.26 1393.58 236.41 C 1389.19 230.64 1389.40 222.93 1389.01 216.04 C 1388.99 183.36 1388.99 150.68 1389.01 118.00 C 1389.27 109.78 1387.90 101.66 1386.80 93.55 Z" />
<path fill="#666666" opacity="1.00" d=" M 2084.35 114.33 C 2091.16 108.66 2101.03 107.66 2109.30 110.33 C 2109.17 116.98 2109.32 123.63 2109.19 130.28 C 2101.76 129.22 2093.31 127.94 2086.91 132.84 C 2078.04 139.56 2075.38 151.39 2075.05 161.95 C 2074.92 178.80 2075.04 195.65 2075.00 212.50 C 2066.99 212.44 2058.99 212.65 2051.00 212.37 C 2050.72 178.59 2051.66 144.79 2050.31 111.03 C 2057.94 110.96 2065.58 111.02 2073.21 111.00 C 2073.82 117.56 2074.10 124.15 2074.27 130.74 C 2076.66 124.78 2079.45 118.67 2084.35 114.33 Z" />
<path fill="#666666" opacity="1.00" d=" M 2218.60 109.76 C 2228.28 108.30 2238.50 108.57 2247.68 112.26 C 2256.51 115.75 2263.50 122.97 2267.59 131.44 C 2272.85 142.38 2274.06 154.76 2273.75 166.75 C 2251.43 166.75 2229.11 166.75 2206.80 166.75 C 2207.25 175.31 2209.01 184.43 2215.05 190.91 C 2221.82 198.10 2233.55 198.65 2241.86 193.88 C 2247.06 190.93 2250.42 185.80 2253.27 180.70 C 2259.65 183.70 2266.04 186.69 2272.32 189.91 C 2268.10 197.16 2262.71 204.07 2255.36 208.34 C 2247.16 213.21 2237.41 214.62 2228.02 214.53 C 2219.27 214.59 2210.32 212.83 2202.79 208.23 C 2195.36 203.69 2189.71 196.55 2186.45 188.53 C 2182.18 178.31 2181.36 167.02 2181.82 156.06 C 2182.33 146.27 2184.50 136.30 2189.88 127.97 C 2196.17 118.05 2207.08 111.57 2218.60 109.76 M 2217.79 128.80 C 2210.25 133.44 2207.55 142.66 2206.94 151.00 C 2220.93 150.96 2234.92 151.07 2248.91 150.94 C 2248.11 143.77 2246.78 135.93 2241.46 130.62 C 2235.13 124.93 2224.99 124.67 2217.79 128.80 Z" />
<path fill="#666666" opacity="1.00" d=" M 2310.80 116.75 C 2319.88 109.79 2331.94 108.08 2343.06 109.33 C 2353.69 110.56 2363.63 116.81 2368.93 126.19 C 2369.21 121.11 2369.62 116.05 2370.29 111.01 C 2377.93 111.01 2385.58 110.95 2393.23 111.05 C 2392.18 128.34 2392.56 145.66 2392.50 162.98 C 2392.50 178.64 2392.49 194.31 2392.51 209.98 C 2392.47 218.19 2389.76 226.35 2384.90 232.95 C 2377.67 243.36 2365.51 249.40 2353.09 250.72 C 2340.33 251.98 2326.77 251.52 2315.05 245.80 C 2306.20 241.59 2299.72 232.86 2298.21 223.19 C 2305.78 220.92 2313.96 220.64 2321.77 219.09 C 2323.29 223.75 2325.92 228.37 2330.57 230.52 C 2337.50 233.69 2345.66 234.00 2352.97 231.95 C 2361.98 229.33 2367.98 220.24 2368.62 211.13 C 2368.94 205.78 2368.61 200.41 2368.81 195.06 C 2365.78 199.80 2362.13 204.29 2357.27 207.24 C 2348.84 212.52 2338.48 213.43 2328.80 212.47 C 2319.66 211.50 2310.72 207.26 2304.92 200.04 C 2297.72 191.37 2294.82 180.00 2293.98 168.97 C 2293.33 158.74 2293.69 148.30 2296.60 138.41 C 2299.07 130.02 2303.72 122.05 2310.80 116.75 M 2337.47 127.70 C 2331.99 128.91 2327.04 132.31 2324.10 137.11 C 2319.68 144.22 2318.94 152.87 2318.75 161.04 C 2318.91 168.98 2319.64 177.32 2323.69 184.34 C 2331.60 198.43 2355.28 198.20 2363.31 184.31 C 2368.28 176.17 2369.07 166.26 2368.70 156.94 C 2368.27 148.63 2366.37 139.77 2360.45 133.56 C 2354.70 127.43 2345.40 125.96 2337.47 127.70 Z" />
<path fill="#666666" opacity="1.00" d=" M 2432.80 121.81 C 2441.34 112.95 2453.84 108.90 2465.96 108.97 C 2476.71 108.66 2488.06 111.39 2496.18 118.81 C 2509.38 130.76 2512.26 149.80 2511.75 166.75 C 2489.43 166.75 2467.11 166.75 2444.80 166.75 C 2445.25 175.31 2447.01 184.44 2453.06 190.92 C 2459.31 197.57 2469.84 198.52 2477.91 194.88 C 2484.11 192.20 2488.12 186.43 2491.27 180.70 C 2497.65 183.70 2504.04 186.69 2510.33 189.91 C 2506.09 197.18 2500.68 204.11 2493.29 208.38 C 2485.09 213.23 2475.35 214.62 2465.97 214.53 C 2453.53 214.76 2440.44 210.63 2432.16 200.97 C 2421.57 189.11 2419.17 172.36 2419.78 157.02 C 2420.24 144.37 2423.67 131.05 2432.80 121.81 M 2450.61 133.57 C 2446.78 138.54 2445.50 144.89 2444.94 151.00 C 2458.93 150.96 2472.92 151.07 2486.91 150.94 C 2486.16 144.19 2484.94 136.98 2480.43 131.63 C 2472.69 123.30 2457.24 124.32 2450.61 133.57 Z" />
<path fill="#666666" opacity="1.00" d=" M 2575.82 112.83 C 2583.77 108.67 2593.14 108.35 2601.87 109.56 C 2610.11 110.80 2618.04 115.42 2622.21 122.79 C 2627.82 132.48 2628.21 144.06 2628.00 154.97 C 2627.99 174.14 2628.00 193.32 2628.00 212.50 C 2619.99 212.44 2611.99 212.65 2604.00 212.37 C 2604.00 193.92 2603.99 175.47 2604.01 157.02 C 2603.92 150.80 2603.62 144.43 2601.41 138.55 C 2599.87 134.46 2596.63 130.87 2592.42 129.50 C 2585.15 126.98 2576.38 128.27 2570.72 133.66 C 2562.16 141.97 2561.69 154.78 2562.00 165.94 C 2562.00 181.46 2562.00 196.98 2562.00 212.50 C 2553.99 212.44 2545.99 212.65 2538.00 212.37 C 2538.00 196.90 2538.00 181.43 2538.00 165.96 C 2537.93 147.65 2538.37 129.31 2537.11 111.03 C 2544.74 110.97 2552.38 111.02 2560.02 111.00 C 2560.48 116.86 2560.95 122.73 2561.04 128.61 C 2564.65 122.32 2569.28 116.28 2575.82 112.83 Z" />
<path fill="#666666" opacity="1.00" d=" M 852.55 142.10 C 852.91 142.02 853.65 141.88 854.01 141.80 C 859.87 149.58 866.04 157.21 873.49 163.56 C 863.66 190.91 853.98 218.31 845.18 246.01 C 843.02 245.27 841.07 244.06 839.22 242.76 C 833.79 238.99 827.87 236.00 821.93 233.12 C 823.71 228.67 826.62 224.79 828.54 220.39 C 840.18 195.57 846.43 168.69 852.55 142.10 Z" />
</g>
</svg>
