<?xml version="1.0" encoding="UTF-8" ?>
<!DOCTYPE svg PUBLIC "-//W3C//DTD SVG 1.1//EN" "http://www.w3.org/Graphics/SVG/1.1/DTD/svg11.dtd">
<svg width="480pt" height="480pt" viewBox="0 0 480 480" version="1.1" xmlns="http://www.w3.org/2000/svg">
<g id="#9966ffff">
<path fill="#9966ff" opacity="1.00" d=" M 152.77 47.67 C 154.29 45.72 156.87 46.38 159.00 46.27 C 247.68 46.77 336.37 46.43 425.05 46.43 C 395.71 73.28 366.58 100.38 336.66 126.59 C 276.76 127.15 216.84 125.41 156.96 127.39 C 156.90 168.80 157.02 210.21 156.89 251.62 C 200.65 288.15 245.31 323.59 290.06 358.91 C 302.51 368.93 315.27 378.59 327.52 388.86 C 325.71 389.29 323.88 389.70 322.02 389.73 C 295.36 389.92 268.70 389.82 242.04 389.79 C 240.27 389.83 238.60 389.43 237.04 388.57 C 235.40 390.13 234.37 392.15 233.19 394.05 C 221.51 406.23 209.58 418.82 194.33 426.55 C 188.45 429.38 182.64 432.81 176.06 433.69 C 172.76 434.17 169.47 433.22 166.56 431.73 C 175.26 419.92 183.33 406.06 181.88 390.83 C 175.79 389.62 169.56 389.99 163.39 389.81 C 128.31 359.89 94.23 328.82 59.48 298.52 C 58.18 297.17 55.72 296.24 55.78 294.08 C 55.35 242.08 55.71 190.07 55.59 138.06 C 55.23 134.94 58.68 133.49 60.50 131.52 C 90.90 103.18 121.36 74.89 152.77 47.67 Z" />
<path fill="#9966ff" opacity="1.00" d=" M 241.44 203.39 C 286.62 203.18 331.81 203.47 377.00 203.23 C 376.97 246.02 377.06 288.82 376.96 331.61 C 336.27 295.85 297.32 258.15 257.48 221.45 C 251.39 216.15 245.39 210.53 241.44 203.39 Z" />
</g>
<g id="#0ca5f6fe">
<path fill="#0ca5f6" opacity="1.00" d=" M 349.29 321.23 C 351.97 319.56 353.23 325.33 350.06 324.90 C 348.07 324.82 348.05 322.28 349.29 321.23 Z" />
<path fill="#0ca5f6" opacity="1.00" d=" M 362.51 331.69 C 368.25 327.80 376.63 333.30 375.71 340.04 C 375.59 346.40 367.49 350.58 362.31 346.77 C 356.90 343.55 357.02 334.76 362.51 331.69 Z" />
<path fill="#0ca5f6" opacity="1.00" d=" M 331.17 334.71 C 331.32 333.30 331.12 331.54 333.10 331.58 C 333.15 332.37 333.25 333.96 333.30 334.75 C 333.97 334.82 335.30 334.96 335.96 335.03 C 337.61 336.91 334.46 336.89 333.37 337.01 C 333.29 337.78 333.14 339.32 333.07 340.09 C 331.05 340.17 331.24 338.39 331.17 336.95 C 330.40 336.88 328.86 336.74 328.09 336.67 C 328.03 334.86 329.80 334.79 331.17 334.71 Z" />
<path fill="#0ca5f6" opacity="1.00" d=" M 399.02 334.06 C 399.52 333.63 400.52 332.76 401.02 332.32 C 402.54 333.17 404.64 335.08 402.94 336.87 C 401.26 339.17 397.38 336.47 399.02 334.06 Z" />
<path fill="#0ca5f6" opacity="1.00" d=" M 333.23 355.34 C 339.67 351.66 346.04 347.84 352.41 344.04 C 353.33 346.02 354.41 347.92 355.68 349.70 C 350.41 353.08 344.88 356.06 339.61 359.45 C 339.77 365.84 339.66 372.23 339.77 378.62 C 337.54 378.47 335.32 378.43 333.09 378.54 C 333.29 370.81 333.04 363.07 333.23 355.34 Z" />
<path fill="#0ca5f6" opacity="1.00" d=" M 381.52 344.04 C 388.05 347.97 394.76 351.60 401.22 355.64 C 401.06 363.29 401.28 370.95 401.28 378.61 C 399.00 378.47 396.72 378.47 394.45 378.61 C 394.54 372.19 394.45 365.78 394.52 359.36 C 389.08 356.22 383.67 353.04 378.19 349.97 C 379.46 348.09 380.58 346.11 381.52 344.04 Z" />
<path fill="#0ca5f6" opacity="1.00" d=" M 382.99 358.85 C 383.19 358.18 383.58 356.86 383.78 356.20 L 384.52 356.92 C 384.54 357.67 384.58 359.15 384.60 359.89 C 385.59 358.94 386.69 358.14 387.89 357.48 C 387.28 358.60 386.67 359.72 386.04 360.83 C 385.48 360.57 384.37 360.05 383.81 359.78 C 382.09 360.52 382.28 362.36 383.79 363.25 C 385.83 360.99 386.93 363.30 387.85 365.11 C 386.69 364.56 385.64 363.85 384.68 363.00 C 384.61 363.92 384.47 365.76 384.40 366.68 C 383.53 365.67 383.20 364.46 383.39 363.06 C 382.44 363.92 381.37 364.56 380.18 364.99 C 380.83 364.01 381.60 363.11 382.44 362.29 C 381.28 361.99 380.12 361.69 378.96 361.38 C 379.86 360.58 380.75 359.77 381.58 358.88 L 379.86 357.82 C 380.91 358.10 381.96 358.44 382.99 358.85 Z" />
<path fill="#0ca5f6" opacity="1.00" d=" M 386.32 361.02 C 388.42 359.31 388.48 363.26 386.32 361.73 L 386.32 361.02 Z" />
<path fill="#0ca5f6" opacity="1.00" d=" M 374.43 370.12 C 375.63 370.45 375.76 371.62 376.02 372.66 C 376.71 373.04 378.08 373.81 378.76 374.19 C 378.07 374.34 376.70 374.64 376.02 374.79 C 376.31 376.13 374.40 378.82 374.23 375.95 L 373.97 374.73 C 373.39 374.66 372.23 374.53 371.66 374.46 L 371.83 372.86 C 372.40 372.87 373.53 372.88 374.10 372.89 C 374.18 372.20 374.35 370.81 374.43 370.12 Z" />
<path fill="#0ca5f6" opacity="1.00" d=" M 328.47 389.48 C 330.62 385.44 336.04 383.38 340.14 385.74 C 345.50 388.20 346.66 396.37 342.14 400.17 C 338.37 403.96 331.29 402.99 328.75 398.28 C 326.90 395.68 326.97 392.28 328.48 389.55 C 313.01 390.36 297.48 389.79 281.98 389.97 C 267.16 389.89 252.34 390.12 237.53 389.80 C 236.18 391.31 234.74 392.73 233.19 394.05 C 234.37 392.15 235.40 390.13 237.04 388.57 C 238.60 389.43 240.27 389.83 242.04 389.79 C 268.70 389.82 295.36 389.92 322.02 389.73 C 323.88 389.70 325.71 389.29 327.52 388.86 C 327.76 389.01 328.23 389.33 328.47 389.48 Z" />
<path fill="#0ca5f6" opacity="1.00" d=" M 394.38 385.53 C 401.08 382.02 409.25 390.34 405.91 396.96 C 404.02 402.29 396.67 404.43 392.39 400.61 C 387.18 396.88 388.40 387.79 394.38 385.53 Z" />
<path fill="#0ca5f6" opacity="1.00" d=" M 367.00 407.57 C 372.33 404.34 377.76 401.27 383.10 398.06 C 383.98 400.18 385.09 402.21 386.50 404.05 C 379.95 407.73 373.48 411.55 367.04 415.41 C 360.68 411.51 354.23 407.77 347.76 404.06 C 349.09 402.22 350.11 400.19 350.93 398.08 C 356.26 401.28 361.67 404.34 367.00 407.57 Z" />
</g>
</svg>
