<?xml version="1.0" standalone="no"?><!DOCTYPE svg PUBLIC "-//W3C//DTD SVG 1.1//EN" "http://www.w3.org/Graphics/SVG/1.1/DTD/svg11.dtd"><svg t="1597354606868" class="icon" viewBox="0 0 1024 1024" version="1.1" xmlns="http://www.w3.org/2000/svg" p-id="7630" xmlns:xlink="http://www.w3.org/1999/xlink" width="200" height="200"><defs><style type="text/css"></style></defs><path d="M406.853101 599.816782a130.265827 130.265827 0 0 0 17.716972-182.290229 260.941294 260.941294 0 0 1 2.867487 38.19902 260.224422 260.224422 0 0 1-75.476348 183.519151c2.969897-2.150615 5.939794-4.40364 9.216922-6.451845a400.731273 400.731273 0 0 0 45.674967-32.976097z" fill="#4F4F4F" p-id="7631"></path><path d="M274.231839 189.970997a578.0034 578.0034 0 0 1 4.915692-96.880088c2.969897-25.39774 14.849485-35.638764 40.964096-35.638764h359.255126c18.229023 0 33.79538 6.144614 37.277327 25.807381 11.674767 65.952195 14.439844 131.80198-10.241024 195.910791a167.338334 167.338334 0 0 1-71.687168 84.590859 520.756076 520.756076 0 0 0-62.675068 40.144815 122.892289 122.892289 0 0 0-0.614461 192.736073 178.60346 178.60346 0 0 0 37.584558 24.885689c67.79558 31.542354 100.054805 85.0005 111.524753 151.464746a274.971497 274.971497 0 0 1 56.018401-12.80128c-14.235024-78.241424-51.205121-141.838184-125.964596-180.958896a313.477748 313.477748 0 0 1-32.771277-19.867587c-46.90389-32.566457-47.006301-84.693269 0-117.362136 15.975998-11.162716 33.385739-20.482048 49.976197-30.723072a229.60376 229.60376 0 0 0 102.410241-140.916492c16.180818-60.729273 14.235024-122.073007 5.632564-183.723972C768.054021 30.723072 735.385155 0.614461 679.059522 0H500.456062C437.166533 0 373.877004 0 310.587475 0.614461A87.253525 87.253525 0 0 0 223.129129 79.163116a551.888789 551.888789 0 0 0-5.837384 120.434444A258.176218 258.176218 0 0 1 276.996916 219.157916c-1.024102-9.524152-2.150615-19.253125-2.765077-29.186919zM286.213837 736.227223a178.29623 178.29623 0 0 1 40.144815-74.349835 258.381038 258.381038 0 0 1-92.169217 45.879788c0 1.331333-0.921692 2.560256-1.331333 3.891589a428.279628 428.279628 0 0 0-10.650665 46.69907 281.423342 281.423342 0 0 1 61.446144-10.241024c0.819282-3.993999 1.536154-7.885589 2.560256-11.879588z" fill="#4F4F4F" p-id="7632"></path><path d="M417.401356 773.50455A280.808881 280.808881 0 0 0 299.424758 747.594759H283.448761a507.545155 507.545155 0 0 0-5.530153 176.350436 80.494449 80.494449 0 0 0 5.222922 22.427842 282.345035 282.345035 0 0 1 134.259826-172.868487z" fill="#00B2F4" opacity=".8" p-id="7633"></path><path d="M223.026719 946.475448a87.253525 87.253525 0 0 0 51.20512 69.331733 278.248625 278.248625 0 0 1 9.216922-68.922092 80.494449 80.494449 0 0 1-5.222922-22.427843 507.545155 507.545155 0 0 1 5.530153-176.350435 281.423342 281.423342 0 0 0-61.446145 10.241024 555.268327 555.268327 0 0 0 0.716872 188.127613z" fill="#4F4F4F" p-id="7634"></path><path d="M703.330749 779.341934a281.525753 281.525753 0 0 0-285.929393-5.837384 282.754675 282.754675 0 0 1 140.30203 143.374338A283.061906 283.061906 0 0 1 703.330749 779.341934z" fill="#00B2F4" opacity=".8" p-id="7635"></path><path d="M324.208037 966.752675h215.061506a285.212521 285.212521 0 0 1 18.331433-49.668967 282.754675 282.754675 0 0 0-140.30203-143.374337A282.345035 282.345035 0 0 0 283.14153 946.885089c6.247025 14.542254 17.921792 19.765177 41.066507 19.867586z" fill="#00B2F4" opacity=".8" p-id="7636"></path><path d="M324.208037 966.752675h215.061506a285.212521 285.212521 0 0 1 18.331433-49.668967 282.754675 282.754675 0 0 0-140.30203-143.374337A282.345035 282.345035 0 0 0 283.14153 946.885089c6.247025 14.542254 17.921792 19.765177 41.066507 19.867586z" fill="#00B2F4" opacity=".8" p-id="7637"></path><path d="M498.203036 966.752675h-174.097409c-23.144714 0-34.819482-5.325333-40.964097-19.867586a278.248625 278.248625 0 0 0-9.216922 68.922092 95.855986 95.855986 0 0 0 37.89179 7.783178q109.271727 0.614461 218.441044 0a278.248625 278.248625 0 0 1 9.114511-57.247325z" fill="#4F4F4F" p-id="7638"></path><path d="M723.505567 793.064906c-0.716872-6.861486-1.638564-13.620562-2.765077-20.482048-5.939794 1.945795-11.674767 4.09641-17.409741 6.451845 6.963896 4.608461 13.722972 9.524152 20.174818 14.030203z" fill="#00B2F4" opacity=".8" p-id="7639"></path><path d="M723.505567 793.064906a281.730573 281.730573 0 0 1 60.012401 60.831684 481.328133 481.328133 0 0 0-3.379538-72.711271c-0.921692-7.168717-2.150615-14.235024-3.379538-21.09651a274.971497 274.971497 0 0 0-56.018402 12.80128c1.126513 6.554255 2.048205 13.313331 2.765077 20.174817z" fill="#4F4F4F" p-id="7640"></path><path d="M557.703386 917.083708a273.742574 273.742574 0 0 1 16.283229 49.668967h100.464446c30.723072 0 40.964096-8.807281 45.060506-38.711071a568.888889 568.888889 0 0 0 5.222922-121.663366c0-4.506051-0.716872-8.909691-1.228922-13.313332-6.451845-4.915692-13.210921-9.421742-20.482049-13.722972a283.061906 283.061906 0 0 0-145.320132 137.741774z" fill="#00B2F4" opacity=".8" p-id="7641"></path><path d="M557.703386 917.083708a273.742574 273.742574 0 0 1 16.283229 49.668967h100.464446c30.723072 0 40.964096-8.807281 45.060506-38.711071a568.888889 568.888889 0 0 0 5.222922-121.663366c0-4.506051-0.716872-8.909691-1.228922-13.313332-6.451845-4.915692-13.210921-9.421742-20.482049-13.722972a283.061906 283.061906 0 0 0-145.320132 137.741774z" fill="#00B2F4" opacity=".8" p-id="7642"></path><path d="M723.505567 793.064906c0 4.40364 0.921692 8.807281 1.228922 13.313332a568.888889 568.888889 0 0 1-5.222922 121.663366c-4.30123 29.90379-14.644664 38.608661-45.060506 38.711071H573.986615a275.893189 275.893189 0 0 1 6.861486 57.042505h106.19942a87.560756 87.560756 0 0 0 88.072807-78.036604 724.347635 724.347635 0 0 0 8.39764-91.554756 281.730573 281.730573 0 0 0-60.012401-61.138914z" fill="#4F4F4F" p-id="7643"></path><path d="M539.371953 966.752675h34.614662a273.742574 273.742574 0 0 0-16.283229-49.668967 285.212521 285.212521 0 0 0-18.331433 49.668967z" fill="#00B2F4" opacity=".8" p-id="7644"></path><path d="M539.371953 966.752675h34.614662a273.742574 273.742574 0 0 0-16.283229-49.668967 285.212521 285.212521 0 0 0-18.331433 49.668967z" fill="#00B2F4" opacity=".8" p-id="7645"></path><path d="M539.371953 966.752675h34.614662a273.742574 273.742574 0 0 0-16.283229-49.668967 285.212521 285.212521 0 0 0-18.331433 49.668967z" fill="#00B2F4" opacity=".8" p-id="7646"></path><path d="M539.371953 966.752675a278.248625 278.248625 0 0 0-9.114511 57.247325h50.590659a275.893189 275.893189 0 0 0-6.861486-57.042504z" fill="#4F4F4F" p-id="7647"></path><path d="M276.996916 219.157916C286.213837 286.748675 315.298346 343.074307 380.63608 379.429943a159.145515 159.145515 0 0 1 30.723072 23.349535 130.265827 130.265827 0 0 1 13.518152 14.747075A261.453345 261.453345 0 0 0 276.996916 219.157916z" fill="#00B2F4" opacity=".8" p-id="7648"></path><path d="M351.961212 639.244724a260.224422 260.224422 0 0 0 75.476348-183.519151 260.941294 260.941294 0 0 0-2.867487-38.19902 130.265827 130.265827 0 0 0-13.518152-14.747075 159.145515 159.145515 0 0 0-30.723072-23.349535C315.298346 343.074307 286.213837 286.748675 276.996916 219.157916a258.176218 258.176218 0 0 0-59.705171-19.560356q0.716872 11.879588 2.150615 23.656765c10.241024 81.928193 43.012301 149.826183 115.416342 194.579458A268.519652 268.519652 0 0 1 368.14203 441.69537a72.711271 72.711271 0 0 1 0 115.518751 477.436544 477.436544 0 0 1-44.138814 31.337534A218.850685 218.850685 0 0 0 235.008717 707.757176a258.381038 258.381038 0 0 0 92.169217-45.879788 175.019102 175.019102 0 0 1 24.783278-22.632664z" fill="#4F4F4F" p-id="7649"></path><path d="M519.606777 563.256326c0 17.0001-13.825383 40.964096-30.723073 40.964096s-30.723072-23.963996-30.723072-40.964096 3.481948-61.446145 20.482048-61.446145 40.964096 44.446045 40.964097 61.446145z" fill="#00B2F4" p-id="7650"></path></svg>