<?xml version="1.0" standalone="no"?><!DOCTYPE svg PUBLIC "-//W3C//DTD SVG 1.1//EN" "http://www.w3.org/Graphics/SVG/1.1/DTD/svg11.dtd"><svg t="1597354947050" class="icon" viewBox="0 0 1024 1024" version="1.1" xmlns="http://www.w3.org/2000/svg" p-id="21932" xmlns:xlink="http://www.w3.org/1999/xlink" width="200" height="200"><defs><style type="text/css"></style></defs><path d="M418.909091 0H69.818182a69.957818 69.957818 0 0 0-69.818182 69.818182v349.090909a69.957818 69.957818 0 0 0 69.818182 69.818182h349.090909a69.957818 69.957818 0 0 0 69.818182-69.818182V69.818182a69.957818 69.957818 0 0 0-69.818182-69.818182z m535.272727 0H605.090909a69.957818 69.957818 0 0 0-69.818182 69.818182v349.090909a69.957818 69.957818 0 0 0 69.818182 69.818182h349.090909a69.957818 69.957818 0 0 0 69.818182-69.818182V69.818182a69.957818 69.957818 0 0 0-69.818182-69.818182zM418.909091 535.272727H69.818182a69.957818 69.957818 0 0 0-69.818182 69.818182v349.090909a69.957818 69.957818 0 0 0 69.818182 69.818182h349.090909a69.957818 69.957818 0 0 0 69.818182-69.818182V605.090909a69.957818 69.957818 0 0 0-69.818182-69.818182z m535.272727 0H605.090909a69.957818 69.957818 0 0 0-69.818182 69.818182v349.090909a69.957818 69.957818 0 0 0 69.818182 69.818182h349.090909a69.957818 69.957818 0 0 0 69.818182-69.818182V605.090909a69.957818 69.957818 0 0 0-69.818182-69.818182z m23.272727 395.636364a46.685091 46.685091 0 0 1-46.545454 46.545454H628.363636a46.685091 46.685091 0 0 1-46.545454-46.545454V628.363636a46.685091 46.685091 0 0 1 46.545454-46.545454h302.545455a46.685091 46.685091 0 0 1 46.545454 46.545454v302.545455z" fill="#97e630" p-id="21933"></path></svg>