<?xml version="1.0" standalone="no"?><!DOCTYPE svg PUBLIC "-//W3C//DTD SVG 1.1//EN" "http://www.w3.org/Graphics/SVG/1.1/DTD/svg11.dtd"><svg t="1599550683744" class="icon" viewBox="0 0 1024 1024" version="1.1" xmlns="http://www.w3.org/2000/svg" p-id="25570" width="42" height="42" xmlns:xlink="http://www.w3.org/1999/xlink"><defs><style type="text/css"></style></defs><path d="M32.56775111 512c0 265.63925333 214.37553778 480.01479111 480.01479111 480.01479111s480.01479111-214.37553778 480.01479111-480.01479111-214.95808-480.01479111-480.59733333-480.01479111S32.56775111 246.36074667 32.56775111 512z" fill="#2dc1f7" p-id="25571" data-spm-anchor-id="a313x.7781069.0.i42" class="selected"></path><path d="M613.36234667 572.00184889s16.89372445-23.88423111 34.36999111-72.23523556c18.64135111-47.76846222 20.38897778-75.14794667 20.38897777-75.14794666l-136.89742222-1.74762667v-46.02083555l166.02453334-1.74762667v-34.36999111H529.47626667v-75.73048889H446.75527111v75.14794667h-157.2864v34.3699911l156.12131556-1.74762666V424.61866667H322.09123555v27.37948444h256.90112c-1.74762667 16.89372445-6.99050667 32.62236445-12.23338666 47.76846222-10.48576 25.63185778-20.38897778 49.51608889-20.38897778 49.51608889S426.36629333 506.17457778 361.12156445 506.17457778c-63.49710222 0-140.39267555 25.63185778-149.1308089 99.61472-6.99050667 73.40032 36.11761778 114.76081778 97.86709334 128.74183111 60.00184889 13.98101333 116.50844445 0 166.02453333-23.88423111s97.86709333-78.6432 97.86709333-78.6432l255.15349334 125.24657777s15.14609778-23.88423111 27.37948444-46.02083555c8.73813333-15.14609778 15.14609778-32.62236445 22.13660445-47.76846222l-265.05671111-91.45912889z m-263.89162667 121.75132444c-90.87658667 0-107.77031111-44.27320889-107.77031111-75.14794666 0-30.87473778 18.64135111-66.99235555 96.11946666-72.23523556 75.14794667-5.24288 180.00554667 54.75896889 180.00554667 54.75896889s-77.47811555 92.62421333-168.35470222 92.62421333z" fill="#FFFFFF" p-id="25572"></path></svg>