<?xml version="1.0" standalone="no"?><!DOCTYPE svg PUBLIC "-//W3C//DTD SVG 1.1//EN" "http://www.w3.org/Graphics/SVG/1.1/DTD/svg11.dtd"><svg t="1599555508614" class="icon" viewBox="0 0 1024 1024" version="1.1" xmlns="http://www.w3.org/2000/svg" p-id="35563" width="40" height="40" xmlns:xlink="http://www.w3.org/1999/xlink"><defs><style type="text/css"></style></defs><path d="M515.1872 809.3696h14.9632c49.152-6.4 91.8912-40.6016 106.8416-87.616 2.1376-4.2752 0-6.4-4.2752-8.5504s-6.4 0-8.5504 2.1376c0 0-19.2 32-96.1664 42.7392-10.688 2.1376-23.5008 2.1376-32 2.1376-53.4272 0-76.928-19.2-76.928-21.376a6.5152 6.5152 0 0 0-8.5504 0c-2.1376 2.1376-4.2752 6.4-2.1376 8.5504 21.3376 40.6016 64.0768 61.9776 106.8032 61.9776z" fill="#1A96F5" p-id="35564"></path><path d="M925.44 339.2C878.464 146.9312 707.5072 1.6256 504.512 1.6256 295.0912 1.6256 119.872 153.344 81.408 354.2016c-38.4 6.4-66.24 40.6016-66.24 79.0656V593.536a81.1648 81.1648 0 0 0 81.2032 81.2032c25.6 0 47.0144-12.8 61.9648-29.9136 34.1888 91.8912 104.704 164.544 192.32 205.0944h2.1376c8.5504 0 12.8-10.688 6.4-17.1008-29.9136-29.9136-87.616-102.5664-102.5664-198.7328-6.4-49.152 29.9136-98.304 72.6528-106.8416 70.5152-12.8 138.9056-27.776 209.4208-40.6016 44.8768-8.5504 74.7904-32 94.0288-72.6528 4.2752-8.5504 10.688-27.776 12.8-55.5648 0-4.2752 4.2752-6.4 8.5504-6.4 2.1376 0 4.2752 2.1376 6.4 4.2752l2.1376-2.1376c27.776 40.6016 81.2032 128.2176 89.7536 222.2336 8.5504 106.8416 4.2752 179.4944-76.928 254.2848-4.2752 2.1376-4.2752 2.1376-4.2752 4.2752s2.1376 4.2752 2.1376 6.4h6.4c2.1376 0 2.1376-2.1376 4.2752-2.1376 83.3408-44.8768 145.3184-121.8048 175.232-211.5584 12.8 17.1008 29.9136 29.9136 51.2896 34.1888C876.3264 817.92 735.296 916.2112 562.2016 931.1744c-10.688-25.6-36.3264-44.8768-66.24-44.8768-38.464 0-70.5152 32-70.5152 68.3776 0 38.4 32 68.3776 70.5152 68.3776 32 0 57.7024-21.376 68.3776-49.152C765.2096 956.8128 925.44 839.2832 959.6672 653.376c29.9264-12.8 51.2896-40.6016 51.2896-74.7904V420.4544C1006.6816 375.5776 970.3552 339.2 925.44 339.2z m-74.752 44.928c-51.2896-141.0432-188.0448-241.472-346.176-241.472-160.2688 0-294.8864 100.4288-348.3136 241.472-2.1376-4.2752-6.4-6.4-8.5504-8.5504C177.5616 204.6208 325.0048 74.24 504.512 74.24c177.3696 0 324.8128 128.2048 354.7264 299.1616-2.1376 2.176-6.4128 6.4512-8.5504 10.7264z" fill="#1A96F5" p-id="35565"></path></svg>